<svg height="512pt" viewBox="0 0 512 512" width="512pt" xmlns="http://www.w3.org/2000/svg"><path d="m416 512h-320c-53.023438 0-96-42.976562-96-96v-320c0-53.023438 42.976562-96 96-96h320c53.023438 0 96 42.976562 96 96v320c0 53.023438-42.976562 96-96 96zm0 0" fill="#e3f8fa"/><path d="m336 384c-26.464844 0-48-21.535156-48-48v-26.671875h-64v26.671875c0 26.464844-21.535156 48-48 48s-48-21.535156-48-48 21.535156-48 48-48h26.671875v-64h-26.671875c-26.464844 0-48-21.535156-48-48s21.535156-48 48-48 48 21.535156 48 48v26.671875h64v-26.671875c0-26.464844 21.535156-48 48-48s48 21.535156 48 48-21.535156 48-48 48h-26.671875v64h26.671875c26.464844 0 48 21.535156 48 48s-21.535156 48-48 48zm-26.671875-74.671875v26.671875c0 14.703125 11.953125 26.671875 26.671875 26.671875s26.671875-11.96875 26.671875-26.671875-11.953125-26.671875-26.671875-26.671875zm-133.328125 0c-14.703125 0-26.671875 11.96875-26.671875 26.671875s11.953125 26.671875 26.671875 26.671875 26.671875-11.96875 26.671875-26.671875v-26.671875zm48-21.328125h64v-64h-64zm85.328125-85.328125h26.671875c14.703125 0 26.671875-11.96875 26.671875-26.671875s-11.96875-26.671875-26.671875-26.671875-26.671875 11.96875-26.671875 26.671875zm-133.328125-53.34375c-14.703125 0-26.671875 11.96875-26.671875 26.671875s11.953125 26.671875 26.671875 26.671875h26.671875v-26.671875c0-14.703125-11.96875-26.671875-26.671875-26.671875zm0 0" fill="#26c6da"/></svg>