<svg height="512pt" viewBox="0 0 512 512" width="512pt" xmlns="http://www.w3.org/2000/svg"><path d="m416 512h-320c-53.023438 0-96-42.976562-96-96v-320c0-53.023438 42.976562-96 96-96h320c53.023438 0 96 42.976562 96 96v320c0 53.023438-42.976562 96-96 96zm0 0" fill="#f5e6fe"/><path d="m354.671875 128h-197.34375c-16.175781 0-29.328125 13.152344-29.328125 29.328125v197.328125c0 16.191406 13.152344 29.34375 29.328125 29.34375h197.328125c16.191406 0 29.34375-13.152344 29.34375-29.328125v-197.34375c0-16.175781-13.152344-29.328125-29.328125-29.328125zm0 0" fill="#be63f9"/><g fill="#d9a4fc"><path d="m226.671875 160h-48c-10.304687 0-18.671875 8.367188-18.671875 18.671875v26.671875c0 10.289062 8.367188 18.65625 18.671875 18.65625h48c10.289063 0 18.671875-8.367188 18.671875-18.671875v-26.671875c-.015625-10.289062-8.382812-18.65625-18.671875-18.65625zm0 0"/><path d="m226.671875 245.328125h-48c-10.304687 0-18.671875 8.382813-18.671875 18.671875v69.328125c0 10.304687 8.367188 18.671875 18.671875 18.671875h48c10.289063 0 18.671875-8.367188 18.671875-18.671875v-69.328125c-.015625-10.289062-8.382812-18.671875-18.671875-18.671875zm0 0"/><path d="m333.328125 160h-48c-10.289063 0-18.671875 8.367188-18.671875 18.671875v69.328125c0 10.289062 8.367188 18.671875 18.671875 18.671875h48c10.289063 0 18.671875-8.367187 18.671875-18.671875v-69.328125c0-10.304687-8.367188-18.671875-18.671875-18.671875zm0 0"/><path d="m333.328125 288h-48c-10.289063 0-18.671875 8.367188-18.671875 18.671875v26.671875c0 10.289062 8.367188 18.671875 18.671875 18.671875h48c10.304687-.015625 18.671875-8.382813 18.671875-18.6875v-26.671875c0-10.289062-8.367188-18.65625-18.671875-18.65625zm0 0"/></g></svg>