<svg height="512pt" viewBox="0 0 512 512" width="512pt" xmlns="http://www.w3.org/2000/svg"><path d="m416 512h-320c-53.023438 0-96-42.976562-96-96v-320c0-53.023438 42.976562-96 96-96h320c53.023438 0 96 42.976562 96 96v320c0 53.023438-42.976562 96-96 96zm0 0" fill="#ffe6e2"/><path d="m256 128c-70.574219 0-128 57.425781-128 128s57.425781 128 128 128 128-57.425781 128-128-57.425781-128-128-128zm0 170.671875c-23.519531 0-42.671875-19.136719-42.671875-42.671875s19.152344-42.671875 42.671875-42.671875 42.671875 19.152344 42.671875 42.671875-19.152344 42.671875-42.671875 42.671875zm0 0" fill="#fc573b"/></svg>