<svg height="512pt" viewBox="0 0 512 512" width="512pt" xmlns="http://www.w3.org/2000/svg"><path d="m416 512h-320c-53.023438 0-96-42.976562-96-96v-320c0-53.023438 42.976562-96 96-96h320c53.023438 0 96 42.976562 96 96v320c0 53.007812-42.992188 96-96 96zm0 0" fill="#fff9dd"/><path d="m383.328125 255.328125c0 70.691406-57.308594 128-128 128s-128-57.308594-128-128 57.308594-128 128-128 128 57.308594 128 128zm0 0" fill="#ffd200"/><path d="m305.535156 284.207031-42.671875 42.671875c-4.160156 4.160156-10.910156 4.160156-15.085937 0l-42.671875-42.671875c-3.058594-3.054687-3.96875-7.632812-2.320313-11.632812 1.648438-3.980469 5.535156-6.574219 9.855469-6.574219h32v-74.671875c0-5.886719 4.785156-10.671875 10.671875-10.671875s10.671875 4.785156 10.671875 10.671875v74.671875h32c4.320313 0 8.207031 2.59375 9.855469 6.574219 1.664062 3.984375.753906 8.578125-2.304688 11.632812zm0 0" fill="#ffe777"/></svg>