<svg height="512pt" viewBox="0 0 512 512" width="512pt" xmlns="http://www.w3.org/2000/svg"><path d="m416 512h-320c-53.023438 0-96-42.976562-96-96v-320c0-53.023438 42.976562-96 96-96h320c53.023438 0 96 42.976562 96 96v320c0 53.023438-42.976562 96-96 96zm0 0" fill="#fff9dd"/><path d="m381.664062 130.351562c-1.664062-1.648437-3.921874-2.464843-6.304687-2.320312-52.878906 4.304688-98.734375 20.160156-136.289063 47.121094-2.429687 1.742187-3.679687 4.703125-3.246093 7.664062 2.335937 15.902344-4.527344 34.6875-11.375 48.671875-2.800781-7.9375-6.929688-15.214843-10.847657-21.105469-1.394531-2.0625-3.648437-3.375-6.128906-3.535156-2.480468-.144531-4.898437.847656-6.542968 2.703125-32.097657 36.546875-42.722657 74.960938-33.648438 120.097657l-36.144531 36.144531c-4.160157 4.160156-4.160157 10.910156 0 15.085937 2.078125 2.082032 4.800781 3.121094 7.535156 3.121094s5.457031-1.039062 7.535156-3.121094l91.585938-91.582031c4.160156-4.160156 10.910156-4.160156 15.085937 0 4.160156 4.160156 4.160156 10.910156 0 15.085937l-43.503906 43.503907c.816406.015625 1.679688.160156 2.480469.160156 36.847656 0 69.617187-15.34375 101.054687-46.863281 44.59375-44.589844 65.1875-92.253906 71.058594-164.527344.191406-2.351562-.65625-4.65625-2.304688-6.304688zm0 0" fill="#ffd200"/></svg>