<svg height="512pt" viewBox="0 0 512 512" width="512pt" xmlns="http://www.w3.org/2000/svg"><path d="m416 512h-320c-53.023438 0-96-42.976562-96-96v-320c0-53.023438 42.976562-96 96-96h320c53.023438 0 96 42.976562 96 96v320c0 53.023438-42.976562 96-96 96zm0 0" fill="#fff9dd"/><path d="m365.328125 128h-218.65625c-10.304687 0-18.671875 8.367188-18.671875 18.671875v24.6875c0 5.214844 2.191406 10.226563 6.046875 13.761719l85.632813 78.429687c2.753906 2.527344 4.320312 6.113281 4.320312 9.839844v102.609375c0 2.945312 1.632812 5.664062 4.222656 7.054688 1.183594.640624 2.480469.945312 3.777344.945312 1.550781 0 3.105469-.449219 4.433594-1.34375l43.246094-28.832031c5.214843-3.472657 8.320312-9.28125 8.320312-15.535157v-64.898437c0-3.726563 1.566406-7.3125 4.335938-9.839844l85.632812-78.445312c3.839844-3.519531 6.03125-8.546875 6.03125-13.746094v-24.6875c0-10.304687-8.367188-18.671875-18.671875-18.671875zm0 0" fill="#ffd200"/></svg>