<svg height="512pt" viewBox="0 0 512 512" width="512pt" xmlns="http://www.w3.org/2000/svg"><path d="m416 512h-320c-53.023438 0-96-42.976562-96-96v-320c0-53.023438 42.976562-96 96-96h320c53.023438 0 96 42.976562 96 96v320c0 53.023438-42.976562 96-96 96zm0 0" fill="#ffe6e2"/><path d="m256 149.328125c-59.617188 0-95.488281 9.679687-104.992188 16 9.503907 6.320313 45.375 16 104.992188 16s95.488281-9.679687 104.992188-16c-9.503907-6.320313-45.375-16-104.992188-16zm0 0" fill="#fd907e"/><path d="m256 128c-21.375 0-128 1.808594-128 37.328125v35.390625c0 9.519531 4.191406 18.496094 11.519531 24.59375l84.480469 70.351562v77.664063c0 4.046875 2.289062 7.726563 5.886719 9.535156 1.503906.753907 3.152343 1.121094 4.769531 1.121094 2.273438 0 4.527344-.71875 6.398438-2.128906l38.386718-28.785157c5.359375-4 8.558594-10.382812 8.558594-17.070312v-40.335938l84.480469-70.351562c7.328125-6.097656 11.519531-15.054688 11.519531-24.59375v-35.390625c0-35.519531-106.625-37.328125-128-37.328125zm-104.992188 37.328125c9.503907-6.320313 45.375-16 104.992188-16s95.488281 9.679687 104.992188 16c-9.503907 6.320313-45.375 16-104.992188 16s-95.488281-9.679687-104.992188-16zm0 0" fill="#fc573b"/></svg>