<svg height="512pt" viewBox="0 0 512 512" width="512pt" xmlns="http://www.w3.org/2000/svg"><path d="m416 512h-320c-53.023438 0-96-42.976562-96-96v-320c0-53.023438 42.976562-96 96-96h320c53.023438 0 96 42.976562 96 96v320c0 53.023438-42.976562 96-96 96zm0 0" fill="#ffe6e2"/><path d="m181.328125 256v116.367188c0 6.402343-4.800781 11.632812-10.671875 11.632812-5.855469 0-10.65625-5.230469-10.65625-11.632812v-116.367188zm0 0" fill="#fd907e"/><path d="m352 146.671875v101.328125c0 10.273438-8.398438 18.671875-18.671875 18.671875h-162.65625c-5.902344 0-10.671875-4.785156-10.671875-10.671875v-117.328125c0-5.871094 4.800781-10.671875 10.671875-10.671875h162.671875c10.257812 0 18.65625 8.398438 18.65625 18.671875zm0 0" fill="#fc573b"/></svg>