<svg height="512pt" viewBox="0 0 512 512" width="512pt" xmlns="http://www.w3.org/2000/svg"><path d="m416 512h-320c-53.023438 0-96-42.976562-96-96v-320c0-53.023438 42.976562-96 96-96h320c53.023438 0 96 42.976562 96 96v320c0 53.023438-42.976562 96-96 96zm0 0" fill="#ffe6e2"/><path d="m371.503906 160.191406-19.695312-19.695312c-8-8-18.847656-12.496094-30.175782-12.496094h-164.304687c-16.191406 0-29.328125 13.136719-29.328125 29.328125v197.328125c0 16.207031 13.136719 29.34375 29.328125 29.34375h197.328125c16.207031 0 29.34375-13.136719 29.34375-29.328125v-164.304687c0-11.328126-4.496094-22.175782-12.496094-30.175782zm-72.832031 34.480469c0 4.417969-3.582031 8-8 8h-112c-4.414063 0-8-3.582031-8-8v-26.671875c0-4.414062 3.585937-8 8-8h112c4.417969 0 8 3.585938 8 8zm0 0" fill="#fc573b"/><path d="m304 293.328125c0 26.507813-21.492188 48-48 48s-48-21.492187-48-48c0-26.511719 21.492188-48 48-48s48 21.488281 48 48zm0 0" fill="#fd907e"/></svg>