<svg height="512pt" viewBox="0 0 512 512" width="512pt" xmlns="http://www.w3.org/2000/svg"><path d="m416 512h-320c-53.023438 0-96-42.976562-96-96v-320c0-53.023438 42.976562-96 96-96h320c53.023438 0 96 42.976562 96 96v320c0 53.023438-42.976562 96-96 96zm0 0" fill="#f5e6fe"/><path d="m182 248v124.367188c0 6.402343-4.800781 11.632812-10.671875 11.632812s-10.671875-5.230469-10.671875-11.632812v-124.367188zm0 0" fill="#d9a4fc"/><path d="m350.113281 242.785156-57.792969-43.425781c-.367187-.289063-.992187-.945313-.992187-2.03125 0-1.089844.625-1.742187.847656-1.921875l57.921875-43.519531c3.308594-2.496094 5.214844-6.335938 5.214844-10.558594 0-7.359375-5.984375-13.328125-13.328125-13.328125h-170.65625c-5.886719 0-10.671875 4.769531-10.671875 10.671875v117.328125c0 5.886719 4.769531 10.671875 10.671875 10.671875h170.671875c7.359375 0 13.328125-5.984375 13.328125-13.328125 0-4.222656-1.902344-8.0625-5.214844-10.558594zm0 0" fill="#be63f9"/></svg>