<svg height="512pt" viewBox="0 0 512 512" width="512pt" xmlns="http://www.w3.org/2000/svg"><path d="m416 512h-320c-53.023438 0-96-42.976562-96-96v-320c0-53.023438 42.976562-96 96-96h320c53.023438 0 96 42.976562 96 96v320c0 53.007812-42.992188 96-96 96zm0 0" fill="#ffe6e2"/><path d="m312.71875 138c-23.085938 0-44.335938 11.167969-57.390625 29.375-13.054687-18.191406-34.304687-29.375-57.390625-29.375-38.929688 0-70.609375 31.617188-70.609375 70.464844 0 69.136718 105.535156 151.566406 115.023437 158.832031 3.390626 3.421875 8.0625 5.359375 12.976563 5.359375 4.910156 0 9.582031-1.9375 12.976563-5.359375 9.488281-7.265625 115.023437-89.695313 115.023437-158.832031 0-38.847656-31.679687-70.464844-70.609375-70.464844zm0 0" fill="#fc573b"/></svg>