<svg height="512pt" viewBox="0 0 512 512" width="512pt" xmlns="http://www.w3.org/2000/svg"><path d="m416 512h-320c-53.023438 0-96-42.976562-96-96v-320c0-53.023438 42.976562-96 96-96h320c53.023438 0 96 42.976562 96 96v320c0 53.023438-42.976562 96-96 96zm0 0" fill="#ffe6e2"/><path d="m165.441406 165.441406c-49.9375 49.933594-49.9375 131.167969 0 181.101563 49.933594 49.9375 131.167969 49.9375 181.101563 0 49.9375-49.933594 49.9375-131.167969 0-181.101563-49.933594-49.9375-131.167969-49.921875-181.101563 0zm124.511719 124.511719c-18.722656 18.71875-49.183594 18.71875-67.921875 0-18.734375-18.722656-18.71875-49.183594 0-67.921875 18.722656-18.734375 49.183594-18.71875 67.921875 0 18.734375 18.722656 18.734375 49.199219 0 67.921875zm-113.183594 45.277344c-1.441406-1.4375-2.800781-2.910157-4.128906-4.414063-3.710937-4.222656-3.503906-10.59375.480469-14.578125l18.878906-18.878906c2.097656-2.09375 4.976562-3.230469 7.953125-3.121094 2.976563.113281 5.757813 1.457031 7.695313 3.699219.976562 1.132812 2 2.238281 3.070312 3.328125 1.074219 1.085937 2.191406 2.09375 3.328125 3.070313 2.257813 1.9375 3.601563 4.71875 3.714844 7.695312.109375 2.976562-1.027344 5.871094-3.121094 7.96875l-18.878906 18.878906c-3.96875 3.96875-10.355469 4.191406-14.578125.480469-1.503906-1.3125-2.976563-2.6875-4.414063-4.128906zm121.183594-127.582031c-2.257813-1.9375-3.601563-4.71875-3.714844-7.695313-.109375-2.976563 1.027344-5.855469 3.121094-7.953125l18.878906-18.878906c3.96875-3.96875 10.355469-4.191406 14.578125-.480469 1.503906 1.328125 2.976563 2.6875 4.414063 4.128906 1.441406 1.4375 2.800781 2.910157 4.128906 4.414063 3.710937 4.222656 3.503906 10.59375-.480469 14.578125l-18.878906 18.878906c-2.097656 2.09375-4.976562 3.230469-7.953125 3.121094-2.976563-.113281-5.757813-1.457031-7.695313-3.699219-.976562-1.132812-2-2.238281-3.070312-3.328125-1.074219-1.085937-2.191406-2.109375-3.328125-3.085937zm-116.769531-35.007813c4.222656-3.710937 10.59375-3.503906 14.578125.480469l18.878906 18.878906c2.09375 2.097656 3.230469 4.976562 3.121094 7.953125-.113281 2.976563-1.457031 5.757813-3.699219 7.695313-1.132812.976562-2.238281 2-3.328125 3.070312-1.085937 1.074219-2.09375 2.191406-3.070313 3.328125-1.9375 2.257813-4.71875 3.601563-7.695312 3.714844-2.976562.109375-5.871094-1.027344-7.96875-3.121094l-18.878906-18.878906c-3.96875-3.96875-4.191406-10.355469-.480469-14.578125 1.328125-1.503906 2.6875-2.976563 4.128906-4.414063 1.4375-1.441406 2.910157-2.816406 4.414063-4.128906zm149.632812 166.71875c-4.222656 3.710937-10.59375 3.503906-14.578125-.480469l-18.878906-18.878906c-2.09375-2.097656-3.230469-4.976562-3.121094-7.953125.113281-2.976563 1.457031-5.757813 3.699219-7.695313 1.132812-.976562 2.238281-2 3.328125-3.070312 1.085937-1.074219 2.09375-2.191406 3.070313-3.328125 1.9375-2.257813 4.71875-3.601563 7.695312-3.714844 2.976562-.109375 5.855469 1.027344 7.953125 3.121094l18.878906 18.878906c3.96875 3.96875 4.191407 10.355469.480469 14.578125-1.328125 1.503906-2.6875 2.976563-4.128906 4.414063-1.4375 1.441406-2.894532 2.816406-4.398438 4.128906zm0 0" fill="#fc573b"/></svg>