<svg height="512pt" viewBox="0 0 512 512" width="512pt" xmlns="http://www.w3.org/2000/svg"><path d="m416 512h-320c-53.023438 0-96-42.976562-96-96v-320c0-53.023438 42.976562-96 96-96h320c53.023438 0 96 42.976562 96 96v320c0 53.023438-42.976562 96-96 96zm0 0" fill="#e3f8fa"/><path d="m379.9375 243.710938-118.402344-113.488282c-3.085937-2.957031-7.984375-2.957031-11.070312 0l-118.527344 113.617188c-2.496094 2.496094-3.9375 5.96875-3.9375 9.488281 0 7.359375 5.984375 13.328125 13.328125 13.328125h18.671875v101.34375c0 8.832031 7.167969 16 16 16h45.328125c4.414063 0 8-3.585938 8-8v-69.328125c0-1.472656 1.199219-2.671875 2.671875-2.671875h48c1.472656 0 2.671875 1.199219 2.671875 2.671875v69.328125c0 4.414062 3.585937 8 8 8h45.328125c8.832031 0 16-7.167969 16-16v-101.328125h18.671875c7.359375 0 13.328125-5.984375 13.328125-13.328125 0-3.535156-1.441406-7.007812-4.0625-9.632812zm0 0" fill="#26c6da"/><path d="m224 384h64v-69.328125c0-8.832031-7.167969-16-16-16h-32c-8.832031 0-16 7.167969-16 16zm0 0" fill="#8ce1eb"/></svg>