<svg height="512pt" viewBox="0 0 512 512" width="512pt" xmlns="http://www.w3.org/2000/svg"><path d="m416 512h-320c-53.023438 0-96-42.976562-96-96v-320c0-53.023438 42.976562-96 96-96h320c53.023438 0 96 42.976562 96 96v320c0 53.023438-42.976562 96-96 96zm0 0" fill="#ffe6e2"/><path d="m384 256c0 70.691406-57.308594 128-128 128s-128-57.308594-128-128 57.308594-128 128-128 128 57.308594 128 128zm0 0" fill="#fc573b"/><path d="m297.855469 288c-3.085938-16.191406-15.375-29.039062-31.183594-33.152344v-62.847656c0-5.886719-4.769531-10.671875-10.671875-10.671875-5.886719 0-10.671875 4.785156-10.671875 10.671875v62.847656c-15.808594 4.113282-28.097656 16.960938-31.183594 33.152344h-59.886719c-3.1875-10.113281-4.914062-20.847656-4.914062-32 0-58.816406 47.855469-106.671875 106.671875-106.671875s106.671875 47.855469 106.671875 106.671875c0 11.152344-1.726562 21.886719-4.910156 32zm0 0" fill="#fd907e"/></svg>