<svg height="512pt" viewBox="0 0 512 512" width="512pt" xmlns="http://www.w3.org/2000/svg"><path d="m416 512h-320c-53.023438 0-96-42.976562-96-96v-320c0-53.023438 42.976562-96 96-96h320c53.023438 0 96 42.976562 96 96v320c0 53.023438-42.976562 96-96 96zm0 0" fill="#ffe6e2"/><path d="m352 128h-192c-17.648438 0-32 14.351562-32 32v192c0 17.648438 14.351562 32 32 32h192c17.648438 0 32-14.351562 32-32v-192c0-17.648438-14.351562-32-32-32zm10.671875 224c0 5.886719-4.769531 10.671875-10.671875 10.671875h-128v-58.671875c0-8.832031-7.167969-16-16-16h-58.671875v-128c0-5.886719 4.769531-10.671875 10.671875-10.671875h192c5.886719 0 10.671875 4.769531 10.671875 10.671875zm0 0" fill="#fc573b"/><path d="m338.207031 173.792969c-4.160156-4.160157-10.910156-4.160157-15.085937 0l-45.792969 45.792969-24.464844-24.464844c-3.054687-3.058594-7.632812-3.953125-11.632812-2.320313-3.984375 1.648438-6.574219 5.535157-6.574219 9.855469v64c0 5.886719 4.769531 10.671875 10.671875 10.671875h64c4.320313 0 8.207031-2.59375 9.855469-6.574219 1.664062-3.984375.738281-8.578125-2.320313-11.632812l-24.464843-24.464844 45.792968-45.792969c4.175782-4.160156 4.175782-10.910156.015625-15.070312zm0 0" fill="#fd907e"/></svg>