<svg height="512pt" viewBox="0 0 512 512" width="512pt" xmlns="http://www.w3.org/2000/svg"><path d="m416 512h-320c-53.023438 0-96-42.976562-96-96v-320c0-53.023438 42.976562-96 96-96h320c53.023438 0 96 42.976562 96 96v320c0 53.023438-42.976562 96-96 96zm0 0" fill="#e3f8fa"/><path d="m356.878906 155.121094c-4.160156-4.160156-10.910156-4.160156-15.085937 0l-77.792969 77.789062-24.464844-24.460937c-3.054687-3.058594-7.632812-3.984375-11.632812-2.320313-3.980469 1.648438-6.574219 5.535156-6.574219 9.855469v64c0 5.886719 4.785156 10.671875 10.671875 10.671875h64c4.320312 0 8.207031-2.59375 9.855469-6.578125 1.648437-3.980469.738281-8.574219-2.320313-11.628906l-24.445312-24.449219 77.789062-77.792969c4.160156-4.160156 4.160156-10.910156 0-15.085937zm0 0" fill="#26c6da"/><path d="m317.328125 376h-149.328125c-17.648438 0-32-14.351562-32-32v-149.328125c0-17.648437 14.351562-32 32-32h85.328125c5.886719 0 10.671875 4.769531 10.671875 10.671875 0 5.886719-4.785156 10.671875-10.671875 10.671875h-85.328125c-5.886719 0-10.671875 4.785156-10.671875 10.671875v149.3125c0 5.886719 4.785156 10.671875 10.671875 10.671875h149.328125c5.886719 0 10.671875-4.785156 10.671875-10.671875v-85.328125c0-5.886719 4.785156-10.671875 10.671875-10.671875s10.671875 4.769531 10.671875 10.671875v85.328125c-.015625 17.648438-14.367188 32-32.015625 32zm0 0" fill="#8ce1eb"/></svg>