<svg height="512pt" viewBox="0 0 512 512" width="512pt" xmlns="http://www.w3.org/2000/svg"><path d="m416 512h-320c-53.023438 0-96-42.976562-96-96v-320c0-53.023438 42.976562-96 96-96h320c53.023438 0 96 42.976562 96 96v320c0 53.023438-42.976562 96-96 96zm0 0" fill="#f5e6fe"/><path d="m320 373.328125h-149.328125c-17.648437 0-32-14.351563-32-32v-149.328125c0-17.648438 14.351563-32 32-32h85.328125c5.886719 0 10.671875 4.769531 10.671875 10.671875 0 5.886719-4.785156 10.671875-10.671875 10.671875h-85.328125c-5.886719-.015625-10.671875 4.769531-10.671875 10.65625v149.328125c0 5.886719 4.785156 10.671875 10.671875 10.671875h149.328125c5.886719 0 10.671875-4.785156 10.671875-10.671875v-85.328125c0-5.886719 4.785156-10.671875 10.671875-10.671875s10.65625 4.785156 10.65625 10.671875v85.328125c0 17.648437-14.351562 32-32 32zm0 0" fill="#d9a4fc"/><path d="m362.671875 138.671875h-64c-4.320313 0-8.207031 2.59375-9.855469 6.574219-1.648437 3.984375-.738281 8.578125 2.320313 11.632812l24.464843 24.464844-77.792968 77.792969c-4.160156 4.160156-4.160156 10.910156 0 15.085937 2.078125 2.082032 4.816406 3.121094 7.535156 3.121094 2.734375 0 5.457031-1.039062 7.535156-3.121094l77.792969-77.789062 24.464844 24.460937c2.03125 2.015625 4.75 3.105469 7.535156 3.105469 1.375 0 2.769531-.257812 4.082031-.816406 3.980469-1.648438 6.574219-5.535156 6.574219-9.855469v-64c0-5.886719-4.769531-10.65625-10.65625-10.65625zm0 0" fill="#be63f9"/></svg>