<svg height="512pt" viewBox="0 0 512 512" width="512pt" xmlns="http://www.w3.org/2000/svg"><path d="m416 512h-320c-53.023438 0-96-42.976562-96-96v-320c0-53.023438 42.976562-96 96-96h320c53.023438 0 96 42.976562 96 96v320c0 53.023438-42.976562 96-96 96zm0 0" fill="#ffe6e2"/><path d="m301.328125 128c-45.585937 0-82.671875 37.089844-82.671875 82.671875 0 45.585937 37.085938 82.671875 82.671875 82.671875 45.582031 0 82.671875-37.085938 82.671875-82.671875 0-45.582031-37.089844-82.671875-82.671875-82.671875zm0 48c-19.121094 0-34.671875 15.550781-34.671875 34.671875 0 4.417969-3.585938 8-8 8-4.417969 0-8-3.582031-8-8 0-27.9375 22.734375-50.671875 50.671875-50.671875 4.414063 0 8 3.585938 8 8s-3.585937 8-8 8zm0 0" fill="#fc573b"/><path d="m220.6875 276.222656-89.566406 89.570313c-4.160156 4.160156-4.160156 10.910156 0 15.085937 2.09375 2.082032 4.816406 3.121094 7.550781 3.121094s5.457031-1.039062 7.535156-3.121094l89.570313-89.566406c-5.519532-4.511719-10.578125-9.570312-15.089844-15.089844zm0 0" fill="#fd907e"/></svg>