<svg height="512pt" viewBox="0 0 512 512" width="512pt" xmlns="http://www.w3.org/2000/svg"><path d="m416 512h-320c-53.023438 0-96-42.976562-96-96v-320c0-53.023438 42.976562-96 96-96h320c53.023438 0 96 42.976562 96 96v320c0 53.023438-42.976562 96-96 96zm0 0" fill="#ffe6e2"/><path d="m138.65625 383.921875c-2.734375 0-5.457031-1.042969-7.550781-3.136719-4.160157-4.160156-4.160157-10.929687.015625-15.089844l86.078125-85.984374c4.160156-4.160157 10.914062-4.160157 15.089843.015624 4.160157 4.160157 4.160157 10.929688-.015624 15.089844l-86.082032 85.984375c-2.078125 2.078125-4.800781 3.121094-7.535156 3.121094zm0 0" fill="#fd907e"/><path d="m378.527344 208.800781-75.421875-75.425781c-7.042969-7.054688-19.363281-7.054688-26.402344 0l-10.414063 10.417969c-7.359374 7.375-9.890624 18.078125-6.609374 27.933593 1.359374 4.082032.320312 8.511719-2.734376 11.570313l-30.578124 30.574219c-2.527344 2.511718-5.871094 3.90625-9.421876 3.90625h-12.496093c-7.839844 0-15.21875 3.054687-20.738281 8.589844l-5.054688 5.058593c-3.535156 3.519531-5.472656 8.207031-5.472656 13.199219s1.9375 9.679688 5.472656 13.199219l75.421875 75.421875c3.523437 3.523437 8.210937 5.472656 13.203125 5.472656s9.679688-1.933594 13.199219-5.472656l5.054687-5.070313c5.535156-5.535156 8.59375-12.910156 8.59375-20.734375v-12.496094c0-3.503906 1.421875-6.945312 3.902344-9.425781l30.578125-30.574219c3.039063-3.042968 7.453125-4.113281 11.566406-2.738281 9.871094 3.28125 20.578125.753907 27.921875-6.605469l10.414063-10.417968c7.296875-7.261719 7.296875-19.105469.015625-26.382813zm0 0" fill="#fc573b"/></svg>