<svg height="512pt" viewBox="0 0 512 512" width="512pt" xmlns="http://www.w3.org/2000/svg"><path d="m416 512h-320c-53.023438 0-96-42.976562-96-96v-320c0-53.023438 42.976562-96 96-96h320c53.023438 0 96 42.976562 96 96v320c0 53.023438-42.976562 96-96 96zm0 0" fill="#f5e6fe"/><path d="m309.328125 128h-106.671875c-17.679688 0-32 14.320312-32 32v42.671875c0 5.886719 4.769531 10.671875 10.671875 10.671875s10.671875-4.785156 10.671875-10.671875v-42.671875c0-5.886719 4.769531-10.671875 10.671875-10.671875h107.726563c5.296874 0 9.601562 4.304687 9.601562 9.601563v43.726562c0 5.886719 4.769531 10.671875 10.671875 10.671875s10.671875-4.785156 10.671875-10.671875v-42.65625c-.015625-17.679688-14.335938-32-32.015625-32zm0 0" fill="#d9a4fc"/><path d="m354.671875 192h-197.34375c-16.207031 0-29.328125 13.121094-29.328125 29.328125v69.328125c0 16.222656 13.121094 29.34375 29.328125 29.34375h13.328125v-42.671875c0-5.871094 4.800781-10.671875 10.671875-10.671875h149.328125c5.871094 0 10.671875 4.800781 10.671875 10.671875v42.671875h13.328125c16.222656 0 29.34375-13.121094 29.34375-29.328125v-69.328125c0-16.222656-13.121094-29.34375-29.328125-29.34375zm0 0" fill="#be63f9"/><path d="m330.671875 266.671875h-149.328125c-5.871094 0-10.671875 4.800781-10.671875 10.671875v74.65625c0 7.152344 2.449219 13.96875 6.511719 19.3125l41.167968-40.960938c2.992188-2.992187 8.320313-2.992187 11.3125 0l14.929688 14.929688 26.765625-30.511719c1.488281-1.808593 3.632813-2.769531 5.96875-2.769531s4.480469.960938 5.96875 2.769531l50.558594 57.710938c4.6875-5.550781 7.472656-12.800781 7.472656-20.480469v-74.671875c0-5.855469-4.800781-10.65625-10.65625-10.65625zm0 0" fill="#d9a4fc"/><path d="m277.328125 312c-2.351563 0-4.480469.960938-5.96875 2.769531l-26.765625 30.511719-14.929688-14.929688c-2.992187-2.992187-8.320312-2.992187-11.3125 0l-41.167968 40.960938c5.855468 7.679688 15.136718 12.6875 25.488281 12.6875h106.671875c9.808594 0 18.671875-4.480469 24.527344-11.519531l-50.558594-57.710938c-1.503906-1.808593-3.632812-2.769531-5.984375-2.769531zm0 0" fill="#be63f9"/></svg>