<svg height="512pt" viewBox="0 0 512 512" width="512pt" xmlns="http://www.w3.org/2000/svg"><path d="m416 512h-320c-53.023438 0-96-42.976562-96-96v-320c0-53.023438 42.976562-96 96-96h320c53.023438 0 96 42.976562 96 96v320c0 53.023438-42.976562 96-96 96zm0 0" fill="#ffe6e2"/><path d="m354.671875 128h-197.34375c-16.175781 0-29.328125 13.152344-29.328125 29.328125v197.328125c0 16.191406 13.152344 29.34375 29.328125 29.34375h197.328125c16.191406 0 29.34375-13.152344 29.34375-29.328125v-197.34375c0-16.175781-13.152344-29.328125-29.328125-29.328125zm-98.671875 202.671875c-5.886719 0-10.671875-4.769531-10.671875-10.671875 0-5.886719 4.769531-10.671875 10.671875-10.671875 5.886719 0 10.671875 4.769531 10.671875 10.671875 0 5.886719-4.785156 10.671875-10.671875 10.671875zm17.121094-70.273437c-3.921875 1.679687-6.449219 5.539062-6.449219 9.808593v7.136719c0 5.886719-4.785156 10.65625-10.671875 10.65625s-10.671875-4.785156-10.671875-10.671875v-7.136719c0-12.800781 7.601563-24.335937 19.34375-29.390625 10.769531-4.640625 17.984375-16.5625 17.984375-24.800781 0-14.703125-11.96875-26.671875-26.671875-26.671875s-26.671875 11.96875-26.671875 26.671875c0 5.886719-4.785156 10.671875-10.671875 10.671875-5.871094 0-10.640625-4.785156-10.640625-10.671875 0-26.464844 21.535156-48 48-48s48 21.535156 48 48c0 17.726562-13.28125 36.816406-30.878906 44.398438zm0 0" fill="#fc573b"/></svg>