<svg height="512pt" viewBox="0 0 512 512" width="512pt" xmlns="http://www.w3.org/2000/svg"><path d="m416 512h-320c-53.023438 0-96-42.976562-96-96v-320c0-53.023438 42.976562-96 96-96h320c53.023438 0 96 42.976562 96 96v320c0 53.023438-42.976562 96-96 96zm0 0" fill="#e3f8fa"/><path d="m330.671875 298.671875c-17.871094 0-33.167969 11.070313-39.503906 26.703125l-108.175781-193.277344c-1.183594-2.128906-3.265626-3.585937-5.679688-3.984375-2.351562-.417969-4.847656.320313-6.65625 1.933594-16.59375 14.945313-17.792969 40.527344-3.121094 66.753906l5.296875 9.503907c16.304688 29.390624 38.625 69.632812 54.046875 82.496093 14.882813 12.382813 29.890625 15.726563 34.738282 16.527344l31.808593 56.816406c.125.222657.367188.320313.527344.527344 7.390625 12.6875 20.992187 21.328125 36.71875 21.328125 23.535156 0 42.671875-19.136719 42.671875-42.671875s-19.152344-42.65625-42.671875-42.65625zm0 64c-11.761719 0-21.328125-9.566406-21.328125-21.328125 0-11.757812 9.566406-21.34375 21.328125-21.34375s21.328125 9.566406 21.328125 21.328125-9.566406 21.34375-21.328125 21.34375zm0 0" fill="#8ce1eb"/><path d="m138.671875 341.328125c0 23.519531 19.136719 42.671875 42.671875 42.671875 15.726562 0 29.328125-8.640625 36.734375-21.328125.144531-.207031.402344-.304687.53125-.527344l31.804687-56.816406c4.851563-.785156 19.875-4.128906 34.738282-16.527344 15.421875-12.847656 37.742187-53.105469 54.046875-82.496093l5.296875-9.503907c14.671875-26.242187 13.472656-51.824219-3.121094-66.753906-1.808594-1.632813-4.304688-2.351563-6.65625-1.933594-2.398438.398438-4.496094 1.855469-5.679688 3.984375l-108.175781 193.277344c-6.335937-15.632812-21.632812-26.703125-39.503906-26.703125-23.550781 0-42.6875 19.136719-42.6875 42.65625zm21.328125 0c0-11.761719 9.566406-21.328125 21.328125-21.328125s21.328125 9.566406 21.328125 21.328125-9.566406 21.328125-21.328125 21.328125c-11.761719.015625-21.328125-9.550781-21.328125-21.328125zm0 0" fill="#26c6da"/></svg>