<svg height="512pt" viewBox="0 0 512 512" width="512pt" xmlns="http://www.w3.org/2000/svg"><path d="m416 512h-320c-53.023438 0-96-42.976562-96-96v-320c0-53.023438 42.976562-96 96-96h320c53.023438 0 96 42.976562 96 96v320c0 53.023438-42.976562 96-96 96zm0 0" fill="#e3f8fa"/><path d="m384 256c0 70.691406-57.308594 128-128 128s-128-57.308594-128-128 57.308594-128 128-128 128 57.308594 128 128zm0 0" fill="#26c6da"/><path d="m277.328125 309.328125c0 5.886719-4.769531 10.671875-10.671875 10.671875h-21.328125c-5.886719 0-10.671875-4.769531-10.671875-10.671875v-106.671875c0-5.886719 4.769531-10.671875 10.671875-10.671875h21.328125c5.886719 0 10.671875 4.769531 10.671875 10.671875zm0 0" fill="#8ce1eb"/></svg>