<svg height="512pt" viewBox="0 0 512 512" width="512pt" xmlns="http://www.w3.org/2000/svg"><path d="m416 512h-320c-53.023438 0-96-42.976562-96-96v-320c0-53.023438 42.976562-96 96-96h320c53.023438 0 96 42.976562 96 96v320c0 53.023438-42.976562 96-96 96zm0 0" fill="#e3f8fa"/><path d="m352 128h-192c-17.679688 0-32 14.320312-32 32v192c0 17.679688 14.320312 32 32 32h192c17.679688 0 32-14.320312 32-32v-192c0-17.679688-14.320312-32-32-32zm0 0" fill="#26c6da"/><path d="m298.671875 288c0 5.886719-4.769531 10.671875-10.671875 10.671875h-64c-5.886719 0-10.671875-4.769531-10.671875-10.671875v-64c0-5.886719 4.769531-10.671875 10.671875-10.671875h64c5.886719 0 10.671875 4.769531 10.671875 10.671875zm0 0" fill="#8ce1eb"/></svg>