<svg height="512pt" viewBox="0 0 512 512" width="512pt" xmlns="http://www.w3.org/2000/svg"><path d="m416 512h-320c-53.023438 0-96-42.976562-96-96v-320c0-53.023438 42.976562-96 96-96h320c53.023438 0 96 42.976562 96 96v320c0 53.007812-42.992188 96-96 96zm0 0" fill="#fff9dd"/><path d="m330 255.328125c0 41.238281-33.433594 74.671875-74.671875 74.671875-41.242187 0-74.671875-33.433594-74.671875-74.671875 0-41.242187 33.429688-74.671875 74.671875-74.671875 41.238281 0 74.671875 33.429688 74.671875 74.671875zm0 0" fill="#ffd200"/><g fill="#ffe777"><path d="m255.328125 164.65625c5.886719 0 10.671875-4.785156 10.671875-10.671875v-16c0-5.886719-4.785156-10.65625-10.671875-10.65625s-10.671875 4.785156-10.671875 10.671875v16c0 5.886719 4.785156 10.65625 10.671875 10.65625zm0 0"/><path d="m170.59375 194.097656-13.875-8c-5.101562-2.945312-11.628906-1.203125-14.574219 3.902344-2.945312 5.105469-1.199219 11.632812 3.902344 14.574219l13.875 8c1.679687.976562 3.503906 1.425781 5.324219 1.425781 3.683594 0 7.265625-1.902344 9.25-5.328125 2.960937-5.121094 1.199218-11.648437-3.902344-14.574219zm0 0"/><path d="m364.59375 306.097656-13.875-8c-5.085938-2.945312-11.628906-1.203125-14.574219 3.902344-2.945312 5.105469-1.199219 11.632812 3.902344 14.574219l13.875 8c1.679687.976562 3.503906 1.425781 5.324219 1.425781 3.683594 0 7.265625-1.902344 9.25-5.328125 2.945312-5.121094 1.199218-11.648437-3.902344-14.574219zm0 0"/><path d="m159.9375 298.097656-13.875 8c-5.101562 2.941406-6.847656 9.46875-3.902344 14.574219 1.984375 3.425781 5.566406 5.328125 9.246094 5.328125 1.808594 0 3.648438-.464844 5.328125-1.425781l13.875-8c5.101563-2.941407 6.847656-9.46875 3.902344-14.574219-2.960938-5.105469-9.503907-6.847656-14.574219-3.902344zm0 0"/><path d="m345.40625 214c1.808594 0 3.648438-.464844 5.328125-1.425781l13.875-8c5.101563-2.941407 6.847656-9.46875 3.902344-14.574219-2.960938-5.105469-9.488281-6.847656-14.574219-3.902344l-13.875 8c-5.101562 2.941406-6.847656 9.46875-3.902344 14.574219 1.96875 3.40625 5.550782 5.328125 9.246094 5.328125zm0 0"/><path d="m255.328125 346c-5.886719 0-10.671875 4.785156-10.671875 10.671875v16c0 5.886719 4.785156 10.65625 10.671875 10.65625s10.671875-4.785156 10.671875-10.671875v-16c0-5.886719-4.785156-10.65625-10.671875-10.65625zm0 0"/></g></svg>