<svg height="512pt" viewBox="0 0 512 512" width="512pt" xmlns="http://www.w3.org/2000/svg"><path d="m416 512h-320c-53.023438 0-96-42.976562-96-96v-320c0-53.023438 42.976562-96 96-96h320c53.023438 0 96 42.976562 96 96v320c0 53.023438-42.976562 96-96 96zm0 0" fill="#fff9dd"/><path d="m256 192c-35.296875 0-64 28.703125-64 64s28.703125 64 64 64 64-28.703125 64-64-28.703125-64-64-64zm0 96c-17.648438 0-32-14.351562-32-32s14.351562-32 32-32 32 14.351562 32 32-14.351562 32-32 32zm0 0" fill="#ffe777"/><path d="m256 128c-70.574219 0-128 57.425781-128 128s57.425781 128 128 128 128-57.425781 128-128-57.425781-128-128-128zm0 213.328125c-47.054688 0-85.328125-38.289063-85.328125-85.328125s38.289063-85.328125 85.328125-85.328125 85.328125 38.289063 85.328125 85.328125-38.273437 85.328125-85.328125 85.328125zm0 0" fill="#ffd200"/></svg>